<svg xmlns="http://www.w3.org/2000/svg" viewBox="0 0 376.36 376.22"><g id="Layer_2" data-name="Layer 2"><g id="Layer_1-2" data-name="Layer 1"><path d="M0,376.22c3.14-9.81,5.88-18.33,8.6-26.86C14.06,332.22,19.43,315.06,25,298a18.55,18.55,0,0,1,4.23-7.12q139-139.21,278.21-278.27C330.17-10.07,367.59-.77,375,29.5c3.64,14.88,0,28.24-11.27,39.38C337.22,95.15,310.9,121.64,284.51,148Q185.51,247,86.45,346a24.17,24.17,0,0,1-9.14,5.56c-23.56,7.75-47.23,15.21-70.86,22.75C4.74,374.81,3,375.3,0,376.22Z"/><path d="M262.58.27.83,262V.71H79.34V127.87c2.23-2.11,3.5-3.27,4.71-4.48Q143.79,63.68,203.47,3.89a11.07,11.07,0,0,1,8.7-3.7C228.8.38,245.44.27,262.58.27Z"/><path d="M375.63,375.86c-18.25,0-36.06,0-53.87-.08a6.22,6.22,0,0,1-3.83-1.85Q267.7,323.81,217.57,273.59a3.81,3.81,0,0,1-.59-1l55.84-55.79c.77.67,1.9,1.57,2.91,2.59q48.6,48.57,97.12,97.22c1.49,1.5,3,3.84,3,5.81.24,17,.13,34,.11,51A20.66,20.66,0,0,1,375.63,375.86Z"/></g></g></svg>